<svg width="20" height="19" viewBox="0 0 20 19" fill="none" xmlns="http://www.w3.org/2000/svg">
<path d="M19.8158 3.90479V14.4304C19.8017 14.4656 19.7876 14.5009 19.7805 14.5432C19.4842 16.6596 17.8052 18.1623 15.6818 18.1693C11.8299 18.1835 7.98511 18.1835 4.13325 18.1693C1.84049 18.1552 0.0133255 16.3422 0.00627082 14.0917C-0.00783853 10.776 0.00627082 7.4674 0.00627082 4.1517C0.00627082 4.03178 0.0274343 3.9189 0.0415437 3.77075C0.119145 3.8413 0.161474 3.88363 0.210856 3.93301C1.77699 5.49915 3.33608 7.05823 4.90221 8.62437C5.58652 9.30867 6.27082 9.99297 6.95512 10.6773C7.74525 11.4603 8.69057 11.8907 9.80521 11.9189C11.0045 11.9471 12.0345 11.5168 12.8811 10.6632C15.1174 8.42684 17.3608 6.18345 19.5971 3.94712C19.6465 3.89774 19.7029 3.84835 19.7594 3.79192C19.7805 3.8413 19.8017 3.87657 19.8158 3.91185V3.90479Z" fill="white"/>
<path d="M0.591919 2.02822C1.4667 0.708995 2.63777 0.0176367 4.16158 0.010582C7.99227 -0.00352734 11.823 -0.00352734 15.6536 0.010582C17.1775 0.010582 18.3556 0.701941 19.2022 1.99295C19.1528 2.04938 19.1034 2.09877 19.054 2.14815C16.6201 4.58201 14.1863 7.01587 11.7524 9.44974C10.6589 10.5432 9.15629 10.5432 8.06282 9.44268C5.63601 7.01587 3.2092 4.58907 0.782395 2.16931C0.725957 2.11288 0.655411 2.0776 0.591919 2.03527V2.02822Z" fill="white"/>
</svg>
