<svg width="20" height="20" viewBox="0 0 20 20" fill="none" xmlns="http://www.w3.org/2000/svg">
<path d="M4.54192 0.0141349C4.63363 0.0423536 4.72535 0.0635174 4.81706 0.0917361C5.36027 0.239884 5.81882 0.507962 6.1645 0.959461C6.68654 1.64376 7.2227 2.31396 7.7518 2.99121C8.51371 3.97181 8.47138 5.34747 7.66009 6.28574C7.21564 6.80073 6.77825 7.32983 6.33381 7.84482C6.26326 7.92948 6.26326 7.99297 6.30559 8.08468C7.44845 10.6667 9.31088 12.5291 11.8929 13.679C11.9846 13.7214 12.0552 13.7214 12.1328 13.6438C12.6477 13.1993 13.1698 12.776 13.6777 12.3316C14.6583 11.4709 16.1116 11.478 17.1063 12.3175C17.6989 12.8254 18.3197 13.3051 18.9546 13.7496C19.9987 14.4833 20.4008 16.2399 19.3074 17.4815C19.0816 17.7425 18.8488 17.9965 18.6301 18.2575C18.2139 18.7513 17.7059 19.1323 17.1345 19.4286C16.168 19.9295 15.138 20.0706 14.0657 19.9718C12.3938 19.8237 10.877 19.1958 9.44492 18.3633C6.21388 16.4939 3.58954 13.9894 1.65656 10.7866C0.901712 9.545 0.344393 8.21872 0.111588 6.77251C-0.198817 4.88891 0.111589 3.14641 1.38143 1.67198C1.81176 1.1711 2.36203 0.76193 2.90524 0.373923C3.18037 0.176393 3.55427 0.12701 3.87878 0.00708008H4.54192V0.0141349Z" fill="white"/>
<path d="M12.1539 0.0141097C12.5701 0.0776017 12.9934 0.112875 13.4026 0.21164C16.8311 1.07937 18.9617 3.2381 19.7871 6.67372C19.914 7.20282 19.9281 7.75309 19.9564 8.2963C19.9846 8.78307 19.6248 9.15697 19.1521 9.17108C18.7006 9.19224 18.3338 8.83245 18.2915 8.33862C18.235 7.79541 18.2139 7.24515 18.0869 6.71605C17.452 4.04233 15.1239 2.01058 12.3867 1.71429C12.161 1.69312 11.9352 1.67901 11.7024 1.67196C11.2086 1.65079 10.8841 1.39683 10.8065 0.966491C10.7359 0.550265 10.9546 0.21164 11.4132 0.0282187C11.4273 0.0282187 11.4343 0.0141093 11.4414 0C11.6742 0 11.907 0 12.1468 0L12.1539 0.0141097Z" fill="white"/>
<path d="M11.8929 3.34385C14.1221 3.46378 15.9352 5.02992 16.4572 7.06872C16.556 7.46378 16.5983 7.87295 16.6265 8.28212C16.6618 8.78301 16.2809 9.17807 15.8012 9.17807C15.3355 9.17807 14.9758 8.81123 14.9616 8.31034C14.9193 6.46907 13.5084 5.05814 11.6601 5.00876C11.1592 4.99465 10.7853 4.64191 10.7923 4.16925C10.7923 3.68953 11.1874 3.3368 11.6883 3.34385C11.7518 3.34385 11.8153 3.34385 11.8858 3.34385H11.8929Z" fill="white"/>
</svg>
