<svg width="20" height="20" viewBox="0 0 20 20" fill="none" xmlns="http://www.w3.org/2000/svg">
<path d="M20 9.65079V17.813C20 17.813 19.9718 17.8413 19.9718 17.8624C19.6896 19.224 18.7443 20 17.3474 20C16.3668 20 15.3792 20 14.3986 20H14.1658V19.7531C14.1658 18.2222 14.1658 16.6914 14.1658 15.1605C14.1658 14.8783 14.1446 14.5891 14.0952 14.3069C13.6014 11.4991 10.455 9.86243 7.89418 11.4074C6.52557 12.2328 5.84832 13.4815 5.82716 15.0758C5.81305 16.6349 5.82716 18.2011 5.82716 19.7601C5.82716 19.8377 5.82716 19.9083 5.82716 19.9929C5.7425 19.9929 5.69312 19.9929 5.64374 19.9929C4.61376 19.9929 3.58377 19.9929 2.56085 19.9929C1.08642 19.9859 0.00705467 18.8924 0 17.418C0 14.9489 0 12.4868 0 10.0176C0 9.50265 0.169312 9.07231 0.514991 8.69136C2.85009 6.17284 5.17813 3.64727 7.51323 1.12169C7.95062 0.64903 8.47266 0.310405 9.10053 0.134038C9.30511 0.0776011 9.51675 0.042328 9.72839 0C9.92593 0 10.1164 0 10.3139 0C10.3492 0.0141093 10.3845 0.0282188 10.4198 0.0352735C11.224 0.141094 11.9083 0.493827 12.4586 1.08642C14.7302 3.53439 16.9877 5.98942 19.2663 8.43739C19.5979 8.79718 19.9012 9.15697 20.0071 9.65079H20Z" fill="white"/>
<path d="M7.49912 19.986V19.7602C7.49912 18.1729 7.49912 16.5856 7.49912 14.9983C7.49912 13.6015 8.6067 12.501 9.99647 12.501C11.3933 12.501 12.4938 13.6086 12.4938 14.9983C12.4938 16.5856 12.4938 18.1729 12.4938 19.7602V19.986H7.49207H7.49912Z" fill="white"/>
</svg>
