<svg width="22" height="22" viewBox="0 0 22 22" fill="none" xmlns="http://www.w3.org/2000/svg">
<path d="M0 22C0.155203 21.4286 0.303351 20.8854 0.451499 20.3422C0.797178 19.0864 1.1358 17.8307 1.48854 16.582C1.53086 16.4198 1.5097 16.2998 1.4321 16.1517C0.388007 14.2469 -0.0564372 12.2081 0.126984 10.0494C0.514991 5.43564 3.61199 1.64728 8.10582 0.426824C11.7813 -0.57494 15.1464 0.19402 18.0741 2.6561C20.0282 4.29984 21.2487 6.40919 21.6931 8.92065C22.2928 12.3069 21.4815 15.3545 19.2663 17.9859C17.6226 19.9401 15.5203 21.1535 13.0088 21.6261C10.5679 22.0917 8.23281 21.739 6.01764 20.6102C5.84127 20.5185 5.68607 20.5115 5.50265 20.5609C3.74603 21.0265 1.98942 21.4921 0.232804 21.9506C0.176367 21.9647 0.112875 21.9718 0.00705484 21.993L0 22ZM2.61728 19.4039C2.68078 19.3898 2.70899 19.3827 2.73721 19.3757C3.75309 19.1076 4.76896 18.8536 5.78483 18.5785C5.96825 18.5291 6.10935 18.5503 6.27866 18.649C8.27513 19.8483 10.4339 20.2505 12.7196 19.799C17.6155 18.8325 20.7972 14.1411 19.8801 9.25222C19.0053 4.56086 14.5891 1.23811 9.63668 1.9718C7.55556 2.2822 5.77778 3.22753 4.35273 4.77956C2.49735 6.8113 1.72134 9.21695 1.99647 11.9542C2.14462 13.3792 2.63845 14.6914 3.42152 15.8907C3.51323 16.0247 3.52028 16.1446 3.47795 16.2928C3.18871 17.3157 2.91358 18.3457 2.61728 19.4039Z" fill="white"/>
<path d="M5.42505 8.4693C5.43916 7.55925 5.79895 6.81146 6.44092 6.18359C6.63845 5.98606 6.87831 5.88024 7.1605 5.88729C7.32981 5.88729 7.49912 5.90846 7.66138 5.89435C7.93651 5.87319 8.10582 6.00722 8.19754 6.23297C8.515 6.98077 8.83951 7.72856 9.12875 8.49047C9.17814 8.61745 9.13581 8.82204 9.06526 8.93491C8.86067 9.25237 8.62787 9.55572 8.38801 9.85202C8.23986 10.0354 8.23281 10.1977 8.35274 10.3952C9.24163 11.8838 10.4762 12.9702 12.0988 13.6122C12.3175 13.6968 12.4938 13.6686 12.649 13.4781C12.9171 13.1466 13.1852 12.815 13.4533 12.4834C13.6579 12.2294 13.7566 12.173 14.06 12.307C14.8219 12.6527 15.5697 13.0266 16.3245 13.3864C16.4797 13.457 16.515 13.591 16.515 13.7462C16.4868 14.8891 16.1552 15.4464 14.9277 15.9684C14.2081 16.2718 13.4674 16.2012 12.7337 15.9966C10.1587 15.2771 8.25397 13.6686 6.71605 11.5451C6.20812 10.8467 5.74251 10.1201 5.55203 9.26648C5.4956 9.00546 5.46738 8.74444 5.4321 8.47636L5.42505 8.4693Z" fill="white"/>
</svg>
